<svg width="320" height="96" viewBox="0 0 320 96" fill="none" xmlns="http://www.w3.org/2000/svg">
  <title>Rahman Store</title>
  <defs>
    <linearGradient id="g" x1="0" y1="0" x2="320" y2="96" gradientUnits="userSpaceOnUse">
      <stop offset="0" stop-color="#2563eb"/>
      <stop offset="0.52" stop-color="#f97316"/>
      <stop offset="1" stop-color="#16a34a"/>
    </linearGradient>
  </defs>

  <!-- Mark -->
  <rect x="8" y="16" width="64" height="64" rx="18" fill="url(#g)"/>
  <path d="M28 62V34h14.5c9.8 0 15.5 4.6 15.5 12.3 0 5.3-2.7 9.1-7.3 10.9L60 62h-8.7l-8.2-13.2H36.2V62H28zm8.2-19.1h6.6c4.6 0 7-1.9 7-5.8 0-3.8-2.4-5.6-7-5.6h-6.6v11.4z" fill="white"/>

  <!-- Wordmark -->
  <g fill="#0f172a">
    <path d="M98.6 60V28.1h9.2c10.1 0 16.5 6.1 16.5 15.9 0 9.9-6.4 16-16.5 16h-9.2zm6.8-5.6h2.6c6.3 0 9.7-3.8 9.7-10.4 0-6.5-3.4-10.3-9.7-10.3h-2.6v20.7z"/>
    <path d="M138.4 60.6c-6.7 0-11.3-4.3-11.3-10.6 0-6.4 4.7-10.6 11.5-10.6 6.8 0 11.4 4.2 11.4 10.6 0 6.3-4.6 10.6-11.6 10.6zm0-5c2.9 0 4.9-2.2 4.9-5.6 0-3.5-2-5.6-4.9-5.6-3 0-5 2.1-5 5.6 0 3.4 2 5.6 5 5.6z"/>
    <path d="M167.3 60v-3.2c-1.3 2.3-3.9 3.8-7 3.8-5.4 0-9-4-9-10.3 0-6.5 3.7-10.9 9.4-10.9 3 0 5.5 1.3 6.6 3.5V28.1h6.5V60h-6.5zm-4.8-4.8c2.9 0 4.9-2.1 4.9-5.4 0-3.4-2-5.5-4.9-5.5-2.8 0-4.6 2.1-4.6 5.5 0 3.3 1.8 5.4 4.6 5.4z"/>
    <path d="M192.8 60v-3.1c-1.4 2.3-4.1 3.7-7.6 3.7-4.8 0-7.8-2.5-7.8-6.5 0-3.9 3-6.2 8.6-6.5l6.7-.4v-.8c0-1.7-1.2-2.7-3.4-2.7-2 0-3.4.8-3.8 2.1H178c.4-4.2 4-7.1 10-7.1 6 0 9.3 2.9 9.3 8.2V60h-6.5zm-5.6-4.2c3.2 0 5.6-1.5 5.6-3.7v-1.2l-5.6.3c-2.3.1-3.5.9-3.5 2.3 0 1.5 1.3 2.3 3.5 2.3z"/>
    <path d="M201.7 60V39.9h6.5v3.4c1.1-2.4 3.4-3.8 6.5-3.8 4.9 0 7.9 3.1 7.9 8.4V60h-6.5V49c0-2.8-1.3-4.5-3.9-4.5-2.6 0-4 1.8-4 4.7V60h-6.5z"/>
  </g>

  <g fill="#334155">
    <path d="M232.2 62.2c-3.5 0-5.6-1.9-5.6-5.3V34.3h6.5V39h3.9v4.7h-3.9v11.9c0 1.2.6 1.8 1.8 1.8.6 0 1.1-.1 1.8-.2V62c-1 .1-2 .2-2.5.2z"/>
    <path d="M250.3 60.6c-6.7 0-11.3-4.3-11.3-10.6 0-6.4 4.7-10.6 11.5-10.6 6.8 0 11.4 4.2 11.4 10.6 0 6.3-4.6 10.6-11.6 10.6zm0-5c2.9 0 4.9-2.2 4.9-5.6 0-3.5-2-5.6-4.9-5.6-3 0-5 2.1-5 5.6 0 3.4 2 5.6 5 5.6z"/>
    <path d="M264.7 60V39.9h6.3v3.6c1.2-2.6 3.3-4 6.2-4 .7 0 1.3.1 1.9.2v6c-.8-.2-1.6-.3-2.5-.3-3.1 0-5.4 1.8-5.4 5V60h-6.5z"/>
  </g>
</svg>
